<?xml version="1.0" encoding="UTF-8" standalone="no"?>
<svg width="1361px" height="656px" viewBox="0 0 1361 656" version="1.1" xmlns="http://www.w3.org/2000/svg" xmlns:xlink="http://www.w3.org/1999/xlink">
    <defs></defs>
    <g stroke="none" stroke-width="1" fill="none" fill-rule="evenodd">
        <g transform="translate(-19.000000, -322.000000)" fill="#FFFFFF">
            <g transform="translate(19.000000, 322.000000)">
                <path d="M1283.81375,343.162011 L1291.5633,341.001383 L1294.04448,347.372783 L1304.4304,354.97805 L1315.02311,354.702202 L1322.03198,350.129447 L1325.60565,345.319005 L1334.35792,343.802749 L1340.99136,335.635974 L1339.54416,323.199912 L1330.4677,317.066199 L1323.33817,316.490516 L1319.89207,308.609765 L1312.76944,305.829114 L1303.52762,309.412959 L1296.95633,305.942869 L1288.79646,307.82765 L1284.59223,315.777454 L1275.40202,319.843579 L1270.99136,330.415575 L1276.98733,340.777506 L1283.81375,343.162011 Z"></path>
                <path d="M1123.82132,215.923108 L1127.09592,223.818757 L1136.71441,228.868902 L1143.8781,228.605807 L1150.27887,235.006572 L1164.72001,238.4 L1176.24999,234.278782 L1184.03189,224.248311 L1195.48327,222.757588 L1203.86997,214.410191 L1206.5,199.552905 L1199.51201,188.228687 L1185.94754,182.674082 L1182.00203,171.827968 L1170.45448,165.602907 L1155.45201,169.197472 L1149.63477,179.754597 L1140.56837,179.053162 L1131.79604,183.437014 L1128.84095,187.711281 L1114.98288,187.097699 L1107.63977,193.708849 L1106.5,204.796327 L1112.34822,212.78399 L1123.82132,215.923108 Z"></path>
                <path d="M396.963363,479.647511 L407.759944,491.039581 L433.987009,498.093749 L458.860585,490.830638 L474.489566,474.464549 L488.665229,476.962586 L504.316266,469.401149 L516.5,443.933245 L505.273924,421.547259 L488.456286,414.646316 L483.019109,398.99528 L466.586855,387.329262 L442.582717,389.971237 L430.465149,379.83399 L408.882435,373.968479 L389.65498,387.174876 L384.151638,403.321573 L359.123676,413.887155 L346.5,439.277285 L359.707557,470.34836 L382.985036,480.616778 L396.963363,479.647511 Z"></path>
                <path d="M701.017721,276.609154 L705.274695,286.873498 L717.778729,293.438687 L727.091536,293.096663 L735.412531,301.417658 L754.186014,305.829114 L769.174986,300.47153 L779.291461,287.431918 L794.178246,285.493979 L805.080956,274.642362 L808.5,255.327891 L799.415611,240.606407 L781.781808,233.385421 L776.652642,219.285472 L761.640828,211.192894 L742.137612,215.865827 L734.575202,229.59009 L722.788878,228.678225 L711.384853,234.377232 L707.543237,239.933779 L689.527738,239.136122 L679.981706,247.730617 L678.5,262.144339 L686.102684,272.528302 L701.017721,276.609154 Z"></path>
                <path d="M4.25050862,514.940576 L20.8065824,521.643838 L29.2160788,537.313342 L43.9321106,542.384315 L58.1806003,535.829336 L61.7640458,529.077951 L72.7260478,527.620159 L78.958246,517.774781 L92.6613353,515.029781 L100.5,500.951875 L90.9774015,482.1516 L72.9114996,482.325706 L60.1470156,470.355065 L42.0142101,467.535728 L26.0555729,477.900293 L21.3813265,487.990593 L9.08399324,489.548545 L0.5,502.287207 L4.25050862,514.940576 Z"></path>
                <path d="M47.5004069,66.8873967 L60.7452659,72.2500059 L67.472863,84.7856095 L79.2456884,88.8423875 L90.6444803,83.5984049 L93.5112367,78.1972969 L102.280838,77.0310632 L107.266597,69.1547604 L118.229068,66.9587605 L124.5,55.6964362 L116.881921,40.6562158 L102.4292,40.7955003 L92.2176124,31.2189877 L77.7113681,28.9635181 L64.9444584,37.2551704 L61.2050612,45.3274105 L51.3671946,46.5737719 L44.5,56.7647012 L47.5004069,66.8873967 Z"></path>
                <path d="M1295.41438,43.5445799 L1304.27101,41.0752903 L1307.10665,48.3568911 L1318.97627,57.0486244 L1331.08222,56.7333695 L1339.09236,51.507364 L1343.17655,46.009716 L1353.17915,44.276852 L1360.76022,34.9433941 L1359.10627,20.7307527 L1348.73318,13.7207946 L1340.58515,13.0628711 L1336.64674,4.05629814 L1328.5066,0.87841168 L1317.94452,4.97423424 L1310.43448,1.00841801 L1301.10891,3.16245268 L1296.30407,12.2479433 L1285.80097,16.8949428 L1280.76022,28.9772248 L1287.61276,40.8194312 L1295.41438,43.5445799 Z"></path>
                <path d="M860.714118,619.845891 L865.95347,632.47893 L881.343051,640.559163 L892.804967,640.13821 L903.046192,650.379435 L926.152018,655.808919 L944.599983,649.21497 L957.051029,633.166216 L975.373226,630.78106 L988.791946,617.425224 L993,593.653568 L981.819213,575.534818 L960.116072,566.64745 L953.803251,549.293667 L935.327173,539.333571 L911.323215,545.084874 L902.015633,561.976274 L887.509389,560.853978 L873.473665,567.868141 L868.745523,574.706968 L846.572601,573.725237 L834.823638,584.303077 L833,602.043042 L842.357149,614.823304 L860.714118,619.845891 Z"></path>
            </g>
        </g>
    </g>
</svg>