<?xml version="1.0" encoding="UTF-8" standalone="no"?>
<svg width="1355px" height="596px" viewBox="0 0 1355 596" version="1.1" xmlns="http://www.w3.org/2000/svg" xmlns:xlink="http://www.w3.org/1999/xlink">
    <defs>
        <filter x="-50%" y="-50%" width="200%" height="200%" filterUnits="objectBoundingBox" id="filter-1">
            <feOffset dx="0" dy="2" in="SourceAlpha" result="shadowOffsetOuter1"></feOffset>
            <feGaussianBlur stdDeviation="0" in="shadowOffsetOuter1" result="shadowBlurOuter1"></feGaussianBlur>
            <feColorMatrix values="0 0 0 0 0   0 0 0 0 0   0 0 0 0 0  0 0 0 0.035 0" in="shadowBlurOuter1" type="matrix" result="shadowMatrixOuter1"></feColorMatrix>
            <feMerge>
                <feMergeNode in="shadowMatrixOuter1"></feMergeNode>
                <feMergeNode in="SourceGraphic"></feMergeNode>
            </feMerge>
        </filter>
        <filter x="-50%" y="-50%" width="200%" height="200%" filterUnits="objectBoundingBox" id="filter-2">
            <feOffset dx="0" dy="2" in="SourceAlpha" result="shadowOffsetOuter1"></feOffset>
            <feGaussianBlur stdDeviation="0" in="shadowOffsetOuter1" result="shadowBlurOuter1"></feGaussianBlur>
            <feColorMatrix values="0 0 0 0 0   0 0 0 0 0   0 0 0 0 0  0 0 0 0.035 0" in="shadowBlurOuter1" type="matrix" result="shadowMatrixOuter1"></feColorMatrix>
            <feMerge>
                <feMergeNode in="shadowMatrixOuter1"></feMergeNode>
                <feMergeNode in="SourceGraphic"></feMergeNode>
            </feMerge>
        </filter>
        <filter x="-50%" y="-50%" width="200%" height="200%" filterUnits="objectBoundingBox" id="filter-3">
            <feOffset dx="0" dy="2" in="SourceAlpha" result="shadowOffsetOuter1"></feOffset>
            <feGaussianBlur stdDeviation="0" in="shadowOffsetOuter1" result="shadowBlurOuter1"></feGaussianBlur>
            <feColorMatrix values="0 0 0 0 0   0 0 0 0 0   0 0 0 0 0  0 0 0 0.035 0" in="shadowBlurOuter1" type="matrix" result="shadowMatrixOuter1"></feColorMatrix>
            <feMerge>
                <feMergeNode in="shadowMatrixOuter1"></feMergeNode>
                <feMergeNode in="SourceGraphic"></feMergeNode>
            </feMerge>
        </filter>
        <filter x="-50%" y="-50%" width="200%" height="200%" filterUnits="objectBoundingBox" id="filter-4">
            <feOffset dx="0" dy="2" in="SourceAlpha" result="shadowOffsetOuter1"></feOffset>
            <feGaussianBlur stdDeviation="0" in="shadowOffsetOuter1" result="shadowBlurOuter1"></feGaussianBlur>
            <feColorMatrix values="0 0 0 0 0   0 0 0 0 0   0 0 0 0 0  0 0 0 0.035 0" in="shadowBlurOuter1" type="matrix" result="shadowMatrixOuter1"></feColorMatrix>
            <feMerge>
                <feMergeNode in="shadowMatrixOuter1"></feMergeNode>
                <feMergeNode in="SourceGraphic"></feMergeNode>
            </feMerge>
        </filter>
        <filter x="-50%" y="-50%" width="200%" height="200%" filterUnits="objectBoundingBox" id="filter-5">
            <feOffset dx="0" dy="2" in="SourceAlpha" result="shadowOffsetOuter1"></feOffset>
            <feGaussianBlur stdDeviation="0" in="shadowOffsetOuter1" result="shadowBlurOuter1"></feGaussianBlur>
            <feColorMatrix values="0 0 0 0 0   0 0 0 0 0   0 0 0 0 0  0 0 0 0.035 0" in="shadowBlurOuter1" type="matrix" result="shadowMatrixOuter1"></feColorMatrix>
            <feMerge>
                <feMergeNode in="shadowMatrixOuter1"></feMergeNode>
                <feMergeNode in="SourceGraphic"></feMergeNode>
            </feMerge>
        </filter>
        <filter x="-50%" y="-50%" width="200%" height="200%" filterUnits="objectBoundingBox" id="filter-6">
            <feOffset dx="0" dy="2" in="SourceAlpha" result="shadowOffsetOuter1"></feOffset>
            <feGaussianBlur stdDeviation="0" in="shadowOffsetOuter1" result="shadowBlurOuter1"></feGaussianBlur>
            <feColorMatrix values="0 0 0 0 0   0 0 0 0 0   0 0 0 0 0  0 0 0 0.035 0" in="shadowBlurOuter1" type="matrix" result="shadowMatrixOuter1"></feColorMatrix>
            <feMerge>
                <feMergeNode in="shadowMatrixOuter1"></feMergeNode>
                <feMergeNode in="SourceGraphic"></feMergeNode>
            </feMerge>
        </filter>
        <filter x="-50%" y="-50%" width="200%" height="200%" filterUnits="objectBoundingBox" id="filter-7">
            <feOffset dx="0" dy="2" in="SourceAlpha" result="shadowOffsetOuter1"></feOffset>
            <feGaussianBlur stdDeviation="0" in="shadowOffsetOuter1" result="shadowBlurOuter1"></feGaussianBlur>
            <feColorMatrix values="0 0 0 0 0   0 0 0 0 0   0 0 0 0 0  0 0 0 0.035 0" in="shadowBlurOuter1" type="matrix" result="shadowMatrixOuter1"></feColorMatrix>
            <feMerge>
                <feMergeNode in="shadowMatrixOuter1"></feMergeNode>
                <feMergeNode in="SourceGraphic"></feMergeNode>
            </feMerge>
        </filter>
        <filter x="-50%" y="-50%" width="200%" height="200%" filterUnits="objectBoundingBox" id="filter-8">
            <feOffset dx="0" dy="2" in="SourceAlpha" result="shadowOffsetOuter1"></feOffset>
            <feGaussianBlur stdDeviation="0" in="shadowOffsetOuter1" result="shadowBlurOuter1"></feGaussianBlur>
            <feColorMatrix values="0 0 0 0 0   0 0 0 0 0   0 0 0 0 0  0 0 0 0.035 0" in="shadowBlurOuter1" type="matrix" result="shadowMatrixOuter1"></feColorMatrix>
            <feMerge>
                <feMergeNode in="shadowMatrixOuter1"></feMergeNode>
                <feMergeNode in="SourceGraphic"></feMergeNode>
            </feMerge>
        </filter>
    </defs>
    <g stroke="none" stroke-width="1" fill="none" fill-rule="evenodd">
        <g transform="translate(-304.000000, -347.000000)" fill="#FFFFFF">
            <g transform="translate(304.000000, 347.000000)">
                <path d="M1088.33834,198.877407 C1088.06492,199.922898 1087.91935,201.020097 1087.91935,202.151295 C1087.91935,209.277549 1093.69633,215.05452 1100.82258,215.05452 C1104.0891,215.05452 1107.07212,213.840718 1109.34521,211.839544 L1109.34521,211.839544 C1111.54826,218.934472 1118.16437,224.086778 1125.98387,224.086778 C1135.60431,224.086778 1143.40323,216.287868 1143.40323,206.667424 C1143.40323,206.578797 1143.40256,206.490325 1143.40124,206.402012 C1145.34055,206.994072 1147.39921,207.312585 1149.53226,207.312585 C1161.11242,207.312585 1170.5,197.925007 1170.5,186.344843 C1170.5,174.764679 1161.11242,165.377101 1149.53226,165.377101 C1148.98807,165.377101 1148.44872,165.397832 1147.91496,165.438548 L1147.91496,165.438548 C1147.91788,165.310893 1147.91935,165.182878 1147.91935,165.05452 C1147.91935,155.968545 1140.55372,148.602907 1131.46774,148.602907 C1122.38177,148.602907 1115.01613,155.968545 1115.01613,165.05452 C1115.01613,165.147326 1115.0169,165.239951 1115.01843,165.332392 L1115.01843,165.332392 C1112.70172,164.124481 1110.0677,163.441617 1107.27419,163.441617 C1099.95511,163.441617 1093.73087,168.129179 1091.43988,174.665891 C1089.31427,173.279565 1086.77542,172.473875 1084.04839,172.473875 C1076.56582,172.473875 1070.5,178.539695 1070.5,186.022262 C1070.5,193.50483 1076.56582,199.570649 1084.04839,199.570649 C1085.54772,199.570649 1086.99017,199.327101 1088.33834,198.877407 L1088.33834,198.877407 L1088.33834,198.877407 Z" filter="url(#filter-1)"></path>
                <path d="M949.717037,307.65831 C945.914069,291.792743 931.636837,280 914.605263,280 C895.698725,280 880.186348,294.53213 878.628632,313.035892 L878.628632,313.035892 C876.931839,312.633841 875.161822,312.421053 873.342105,312.421053 C860.726759,312.421053 850.5,322.647812 850.5,335.263158 C850.5,347.878504 860.726759,358.105263 873.342105,358.105263 C875.345492,358.105263 877.288641,357.847352 879.14016,357.362922 C878.720983,359.262861 878.5,361.237203 878.5,363.263158 C878.5,378.320184 890.706132,390.526316 905.763158,390.526316 C918.229742,390.526316 928.741996,382.158838 931.990105,370.7337 C933.741695,371.148752 935.568879,371.368421 937.447368,371.368421 C949.116481,371.368421 958.805753,362.891717 960.693427,351.760067 C962.232627,352.055727 963.82192,352.210526 965.447368,352.210526 C979.283555,352.210526 990.5,340.994081 990.5,327.157895 C990.5,313.321708 979.283555,302.105263 965.447368,302.105263 C959.489351,302.105263 954.017101,304.185085 949.717037,307.65831 L949.717037,307.65831 Z" filter="url(#filter-2)"></path>
                <path d="M1005.8185,33.411568 C1005.80587,33.262861 1005.79943,33.1123914 1005.79943,32.9604174 C1005.79943,30.0536556 1008.15583,27.6972595 1011.06259,27.6972595 C1012.97056,27.6972595 1014.64141,28.7125089 1015.56438,30.2322538 C1016.86085,28.6827674 1018.80904,27.6972595 1020.9874,27.6972595 C1024.66642,27.6972595 1027.68888,30.5082687 1028.02417,34.0996558 L1028.02417,34.0996574 C1028.42727,34.0425744 1028.83923,34.013049 1029.25808,34.013049 C1034.075,34.013049 1037.97988,37.9179339 1037.97988,42.7348535 C1037.97988,47.5517731 1034.075,51.456658 1029.25808,51.456658 C1029.16538,51.456658 1029.07302,51.4552118 1028.98101,51.4523407 C1027.44027,54.8262844 1024.03652,57.1709437 1020.08515,57.1709437 C1014.76061,57.1709437 1010.43046,52.9135186 1010.31315,47.6171457 C1009.03806,48.5200356 1007.48071,49.050643 1005.79943,49.050643 C1001.48082,49.050643 997.979884,45.5497117 997.979884,41.2310941 C997.979884,36.9124765 1001.48082,33.4115452 1005.79943,33.4115452 C1005.80579,33.4115452 1005.81215,33.4115528 1005.8185,33.411568 L1005.8185,33.411568 L1005.8185,33.411568 Z" filter="url(#filter-3)"></path>
                <path d="M1264.31146,498.545222 C1263.70387,496.665388 1263.3756,494.659954 1263.3756,492.577849 C1263.3756,481.872022 1272.05439,473.193234 1282.76022,473.193234 C1291.75149,473.193234 1299.31299,479.314771 1301.50436,487.617467 C1305.10016,484.388441 1309.85462,482.424003 1315.06791,482.424003 C1326.28354,482.424003 1335.3756,491.516066 1335.3756,502.731695 C1335.3756,502.788854 1335.37537,502.845958 1335.3749,502.903005 L1335.3749,502.903005 C1346.30348,504.265424 1354.76022,513.587895 1354.76022,524.885541 C1354.76022,537.120773 1344.8416,547.039387 1332.60637,547.039387 C1328.30442,547.039387 1324.28885,545.813196 1320.89012,543.691249 C1317.14163,554.248552 1307.06457,561.808618 1295.22176,561.808618 C1284.10188,561.808618 1274.53876,555.143384 1270.30958,545.590106 C1267.08624,547.111657 1263.48413,547.962464 1259.68329,547.962464 C1245.91866,547.962464 1234.76022,536.804023 1234.76022,523.039387 C1234.76022,509.274752 1245.91866,498.116311 1259.68329,498.116311 C1261.26474,498.116311 1262.81179,498.263604 1264.31146,498.545222 L1264.31146,498.545222 Z" filter="url(#filter-4)"></path>
                <path d="M549.717575,339.964039 C549.695483,339.703802 549.684211,339.44048 549.684211,339.174526 C549.684211,334.087693 553.807904,329.964 558.894737,329.964 C562.233685,329.964 565.157667,331.740686 566.772861,334.40024 C569.041698,331.688638 572.451023,329.964 576.263158,329.964 C582.701431,329.964 587.990748,334.883266 588.577504,341.168193 L588.577504,341.168196 C589.28292,341.068301 590.003847,341.016631 590.736842,341.016631 C599.166451,341.016631 606,347.85018 606,356.279789 C606,364.709398 599.166451,371.542947 590.736842,371.542947 C590.574616,371.542947 590.412981,371.540416 590.251975,371.535392 C587.555667,377.439793 581.59911,381.542947 574.684211,381.542947 C565.366279,381.542947 557.788503,374.092453 557.583219,364.8238 C555.351807,366.403858 552.626447,367.332421 549.684211,367.332421 C542.12663,367.332421 536,361.205791 536,353.64821 C536,346.090629 542.12663,339.964 549.684211,339.964 C549.695335,339.964 549.706457,339.964013 549.717575,339.964039 L549.717575,339.964039 L549.717575,339.964039 Z" filter="url(#filter-5)"></path>
                <path d="M399.05619,145.714348 C399.021473,145.305404 399.003759,144.891613 399.003759,144.473684 C399.003759,136.480089 405.483849,130 413.477444,130 C418.724363,130 423.31919,132.791936 425.857353,136.971234 C429.422668,132.710147 434.780178,130 440.770677,130 C450.887963,130 459.199747,137.730275 460.121792,147.60659 L460.121792,147.606594 C461.230302,147.449616 462.363188,147.368421 463.515038,147.368421 C476.761567,147.368421 487.5,158.106854 487.5,171.353383 C487.5,184.599912 476.761567,195.338346 463.515038,195.338346 C463.260111,195.338346 463.006113,195.334369 462.753103,195.326473 C458.516048,204.604818 449.155745,211.052632 438.289474,211.052632 C423.64701,211.052632 411.739077,199.344712 411.416488,184.779687 C407.909982,187.262634 403.627275,188.721805 399.003759,188.721805 C387.127561,188.721805 377.5,179.094243 377.5,167.218045 C377.5,155.341847 387.127561,145.714286 399.003759,145.714286 C399.021241,145.714286 399.038718,145.714307 399.05619,145.714348 L399.05619,145.714348 L399.05619,145.714348 Z" filter="url(#filter-6)"></path>
                <path d="M56.6954497,16.1831603 C54.5223249,7.11712219 46.363907,0.37841168 36.6315789,0.37841168 C25.827843,0.37841168 16.9636276,8.68248624 16.073504,19.2560641 L16.073504,19.2560641 C15.103908,19.0263206 14.0924696,18.9047275 13.0526316,18.9047275 C5.84386221,18.9047275 0,24.7485897 0,31.957359 C0,39.1661284 5.84386221,45.0099906 13.0526316,45.0099906 C14.1974243,45.0099906 15.3077951,44.8626131 16.365806,44.5857959 C16.1262761,45.6714754 16,46.7996705 16,47.957359 C16,56.5613741 22.9749323,63.5363064 31.5789474,63.5363064 C38.7027096,63.5363064 44.7097123,58.7548907 46.5657745,52.2262404 C47.5666831,52.4634128 48.6107878,52.588938 49.6842105,52.588938 C56.3522747,52.588938 61.8890016,47.7451072 62.9676727,41.3841641 C63.8472154,41.5531129 64.7553829,41.6415696 65.6842105,41.6415696 C73.5906027,41.6415696 80,35.2321723 80,27.3257801 C80,19.4193879 73.5906027,13.0099906 65.6842105,13.0099906 C62.2796289,13.0099906 59.1526291,14.19846 56.6954497,16.1831603 L56.6954497,16.1831603 Z" filter="url(#filter-7)"></path>
                <path d="M181.19545,546.034419 C179.022325,536.968381 170.863907,530.229671 161.131579,530.229671 C150.327843,530.229671 141.463628,538.533745 140.573504,549.107323 L140.573504,549.107323 C139.603908,548.87758 138.59247,548.755987 137.552632,548.755987 C130.343862,548.755987 124.5,554.599849 124.5,561.808618 C124.5,569.017388 130.343862,574.86125 137.552632,574.86125 C138.697424,574.86125 139.807795,574.713872 140.865806,574.437055 C140.626276,575.522735 140.5,576.65093 140.5,577.808618 C140.5,586.412633 147.474932,593.387566 156.078947,593.387566 C163.20271,593.387566 169.209712,588.60615 171.065774,582.0775 C172.066683,582.314672 173.110788,582.440197 174.184211,582.440197 C180.852275,582.440197 186.389002,577.596366 187.467673,571.235423 C188.347215,571.404372 189.255383,571.492829 190.184211,571.492829 C198.090603,571.492829 204.5,565.083432 204.5,557.177039 C204.5,549.270647 198.090603,542.86125 190.184211,542.86125 C186.779629,542.86125 183.652629,544.049719 181.19545,546.034419 L181.19545,546.034419 Z" filter="url(#filter-8)"></path>
            </g>
        </g>
    </g>
</svg>