<svg width="1401" height="705" xmlns="http://www.w3.org/2000/svg"><path d="M1283.814 392.162l7.75-2.16 2.48 6.37 10.386 7.606 10.593-.276 7.01-4.573 3.573-4.81 8.752-1.52 6.633-8.17-1.44-12.44-9.07-6.14-7.13-.58-3.44-7.88-7.12-2.78-9.24 3.58-6.57-3.47-8.16 1.88-4.2 7.95-9.19 4.06-4.41 10.57 6 10.36 6.83 2.38zM1041.28 116.445l4.41-1.23 1.413 3.627 5.912 4.33 6.03-.158 3.99-2.603 2.034-2.73 4.98-.86 3.77-4.65-.83-7.08-5.17-3.49-4.06-.32-1.96-4.48-4.06-1.58-5.26 2.04-3.74-1.97-4.65 1.08-2.4 4.53-5.23 2.32-2.51 6.02 3.41 5.9 3.88 1.36zm82.54 148.478l3.276 7.896 9.618 5.05 7.164-.27 6.4 6.4 14.442 3.39 11.53-4.12 7.782-10.04 11.45-1.49 8.388-8.35 2.63-14.86-6.988-11.33-13.564-5.56-3.946-10.85-11.548-6.23-15.002 3.59-5.817 10.56-9.067-.7-8.772 4.38-2.955 4.27-13.85-.615-7.34 6.61-1.14 11.09 5.85 7.99 11.47 3.14zm-75.89 220.912l8.856-2.47 2.835 7.283 11.87 8.692 12.11-.316 8.01-5.226 4.09-5.497 10.01-1.73 7.58-9.33-1.65-14.21-10.37-7.01-8.14-.66-3.93-9-8.14-3.18-10.56 4.1-7.51-3.96-9.32 2.16-4.81 9.09-10.5 4.65-5.04 12.08 6.86 11.84 7.8 2.73zm-650.967 42.813l10.797 11.392 26.227 7.054 24.874-7.263 15.63-16.36 14.18 2.5 15.65-7.56 12.19-25.46-11.22-22.38-16.82-6.9-5.44-15.65-16.43-11.66-24 2.64-12.12-10.13L408.9 423l-19.22 13.2-5.502 16.144-25.03 10.562-12.623 25.39 13.21 31.07L383 529.63l13.98-.97zm494.787-116.28l23.18 9.383 11.773 21.94 20.602 7.1 19.948-9.17 5.017-9.45 15.346-2.04 8.726-13.78 19.184-3.84 10.974-19.71-13.332-26.32-25.292.25-17.87-16.76L944.62 346l-22.342 14.51-6.544 14.127-17.216 2.18-12.018 17.835 5.25 17.715zM701.018 325.61l4.257 10.263 12.504 6.566 9.31-.35 8.32 8.32 18.77 4.41 14.99-5.36 10.11-13.04 14.88-1.94 10.9-10.85 3.42-19.32-9.09-14.72-17.63-7.22-5.13-14.1-15.01-8.1-19.51 4.67-7.57 13.72-11.79-.91-11.41 5.7-3.85 5.55-18.02-.8-9.548 8.59-1.48 14.41 7.602 10.38 14.93 4.09zM4.25 563.94l16.557 6.704 8.41 15.67 14.715 5.07 14.25-6.555 3.582-6.76 10.962-1.46 6.232-9.85 13.703-2.75 7.84-14.08-9.52-18.8-18.06.17-12.76-11.97-18.13-2.82-15.96 10.36-4.67 10.09-12.29 1.56-8.59 12.74 3.75 12.65zm159.25 79.238l13.245 5.362 6.728 12.536 11.773 4.057 11.398-5.244 2.867-5.41 8.77-1.17 4.99-7.88 10.96-2.2 6.27-11.27-7.61-15.04-14.45.14-10.21-9.58-14.5-2.26-12.76 8.29-3.74 8.07-9.83 1.24-6.86 10.19 3 10.12zm-116-527.29l13.245 5.362 6.728 12.536 11.773 4.056 11.398-5.244 2.867-5.4 8.77-1.167 4.99-7.87 10.96-2.19 6.27-11.26-7.61-15.04-14.45.14-10.21-9.58-14.51-2.25-12.76 8.29-3.74 8.08-9.83 1.25-6.86 10.19 3 10.12zM1316.38 619.12l7.623 8.04 18.513 4.98 17.558-5.126 11.032-11.553 10.006 1.77 11.048-5.33 8.6-17.98-7.924-15.8-11.87-4.87-3.84-11.04-11.6-8.23-16.943 1.87-8.553-7.15-15.235-4.14-13.572 9.32-3.885 11.4-17.667 7.46-8.91 17.92 9.33 21.936 16.43 7.25 9.87-.683zM418.65 254.666l12.177-3.395 3.9 10.02 16.32 11.95 16.646-.43 11.014-7.18 5.615-7.56 13.754-2.38 10.424-12.84-2.274-19.54-14.263-9.64-11.204-.9-5.42-12.38-11.19-4.37-14.53 5.64-10.33-5.45-12.83 2.96-6.61 12.49-14.44 6.39-6.93 16.61 9.42 16.29 10.72 3.75zm876.764-162.12l8.857-2.47 2.84 7.28 11.87 8.693 12.11-.32 8.01-5.23 4.09-5.5 10-1.74 7.58-9.34-1.65-14.22-10.37-7.01-8.14-.66-3.94-9.01-8.14-3.18-10.56 4.1-7.51-3.97-9.32 2.15-4.8 9.08-10.5 4.65-5.04 12.08 6.85 11.842 7.8 2.72zM503.65 59.396L515.826 56l3.9 10.012 16.32 11.952 16.646-.434 11.014-7.186 5.615-7.56 13.76-2.382L593.5 47.57l-2.274-19.544-14.263-9.638-11.204-.905L560.34 5.1 549.15.73l-14.52 5.63L524.302.91 511.48 3.87l-6.607 12.493-14.442 6.39-6.93 16.612 9.43 16.283 10.73 3.747zm-348.505 262.97l15.5-4.32 4.96 12.74L196.38 346l21.186-.552 14.017-9.145 7.15-9.62 17.503-3.034 13.267-16.34-2.894-24.87-18.16-12.27-14.26-1.15-6.89-15.77-14.25-5.56-18.49 7.16-13.15-6.94-16.32 3.77-8.41 15.9-18.38 8.13-8.83 21.14 11.99 20.72 13.65 4.77zm429.677 113.36l7.75-2.16 2.48 6.37 10.387 7.606 10.59-.276 7.01-4.573 3.57-4.81 8.75-1.516L642 428.2l-1.447-12.435-9.077-6.134-7.13-.57-3.445-7.88-7.12-2.78-9.24 3.59-6.57-3.47-8.16 1.89-4.2 7.95-9.19 4.07-4.42 10.56 6 10.36 6.83 2.39zm275.892 233.12l5.24 12.632 15.39 8.08 11.46-.423 10.242 10.24 23.106 5.43 18.448-6.593 12.45-16.05 18.323-2.384 13.42-13.355 4.207-23.77-11.18-18.12-21.704-8.888-6.313-17.353-18.476-9.96-24.004 5.75-9.307 16.892-14.507-1.122-14.04 7.014-4.73 6.84-22.18-.983-11.75 10.578-1.82 17.74 9.35 12.78 18.35 5.03z" fill="#FFF" fill-rule="evenodd"/></svg>
