<?xml version="1.0" encoding="UTF-8" standalone="no"?>
<svg width="1372px" height="717px" viewBox="0 0 1372 717" version="1.1" xmlns="http://www.w3.org/2000/svg" xmlns:xlink="http://www.w3.org/1999/xlink">
    <defs>
        <filter x="-50%" y="-50%" width="200%" height="200%" filterUnits="objectBoundingBox" id="filter-1">
            <feOffset dx="0" dy="2" in="SourceAlpha" result="shadowOffsetOuter1"></feOffset>
            <feGaussianBlur stdDeviation="0" in="shadowOffsetOuter1" result="shadowBlurOuter1"></feGaussianBlur>
            <feColorMatrix values="0 0 0 0 0   0 0 0 0 0   0 0 0 0 0  0 0 0 0.035 0" in="shadowBlurOuter1" type="matrix" result="shadowMatrixOuter1"></feColorMatrix>
            <feMerge>
                <feMergeNode in="shadowMatrixOuter1"></feMergeNode>
                <feMergeNode in="SourceGraphic"></feMergeNode>
            </feMerge>
        </filter>
        <filter x="-50%" y="-50%" width="200%" height="200%" filterUnits="objectBoundingBox" id="filter-2">
            <feOffset dx="0" dy="2" in="SourceAlpha" result="shadowOffsetOuter1"></feOffset>
            <feGaussianBlur stdDeviation="0" in="shadowOffsetOuter1" result="shadowBlurOuter1"></feGaussianBlur>
            <feColorMatrix values="0 0 0 0 0   0 0 0 0 0   0 0 0 0 0  0 0 0 0.035 0" in="shadowBlurOuter1" type="matrix" result="shadowMatrixOuter1"></feColorMatrix>
            <feMerge>
                <feMergeNode in="shadowMatrixOuter1"></feMergeNode>
                <feMergeNode in="SourceGraphic"></feMergeNode>
            </feMerge>
        </filter>
        <filter x="-50%" y="-50%" width="200%" height="200%" filterUnits="objectBoundingBox" id="filter-3">
            <feOffset dx="0" dy="2" in="SourceAlpha" result="shadowOffsetOuter1"></feOffset>
            <feGaussianBlur stdDeviation="0" in="shadowOffsetOuter1" result="shadowBlurOuter1"></feGaussianBlur>
            <feColorMatrix values="0 0 0 0 0   0 0 0 0 0   0 0 0 0 0  0 0 0 0.035 0" in="shadowBlurOuter1" type="matrix" result="shadowMatrixOuter1"></feColorMatrix>
            <feMerge>
                <feMergeNode in="shadowMatrixOuter1"></feMergeNode>
                <feMergeNode in="SourceGraphic"></feMergeNode>
            </feMerge>
        </filter>
        <filter x="-50%" y="-50%" width="200%" height="200%" filterUnits="objectBoundingBox" id="filter-4">
            <feOffset dx="0" dy="2" in="SourceAlpha" result="shadowOffsetOuter1"></feOffset>
            <feGaussianBlur stdDeviation="0" in="shadowOffsetOuter1" result="shadowBlurOuter1"></feGaussianBlur>
            <feColorMatrix values="0 0 0 0 0   0 0 0 0 0   0 0 0 0 0  0 0 0 0.035 0" in="shadowBlurOuter1" type="matrix" result="shadowMatrixOuter1"></feColorMatrix>
            <feMerge>
                <feMergeNode in="shadowMatrixOuter1"></feMergeNode>
                <feMergeNode in="SourceGraphic"></feMergeNode>
            </feMerge>
        </filter>
        <filter x="-50%" y="-50%" width="200%" height="200%" filterUnits="objectBoundingBox" id="filter-5">
            <feOffset dx="0" dy="2" in="SourceAlpha" result="shadowOffsetOuter1"></feOffset>
            <feGaussianBlur stdDeviation="0" in="shadowOffsetOuter1" result="shadowBlurOuter1"></feGaussianBlur>
            <feColorMatrix values="0 0 0 0 0   0 0 0 0 0   0 0 0 0 0  0 0 0 0.035 0" in="shadowBlurOuter1" type="matrix" result="shadowMatrixOuter1"></feColorMatrix>
            <feMerge>
                <feMergeNode in="shadowMatrixOuter1"></feMergeNode>
                <feMergeNode in="SourceGraphic"></feMergeNode>
            </feMerge>
        </filter>
        <filter x="-50%" y="-50%" width="200%" height="200%" filterUnits="objectBoundingBox" id="filter-6">
            <feOffset dx="0" dy="2" in="SourceAlpha" result="shadowOffsetOuter1"></feOffset>
            <feGaussianBlur stdDeviation="0" in="shadowOffsetOuter1" result="shadowBlurOuter1"></feGaussianBlur>
            <feColorMatrix values="0 0 0 0 0   0 0 0 0 0   0 0 0 0 0  0 0 0 0.035 0" in="shadowBlurOuter1" type="matrix" result="shadowMatrixOuter1"></feColorMatrix>
            <feMerge>
                <feMergeNode in="shadowMatrixOuter1"></feMergeNode>
                <feMergeNode in="SourceGraphic"></feMergeNode>
            </feMerge>
        </filter>
        <filter x="-50%" y="-50%" width="200%" height="200%" filterUnits="objectBoundingBox" id="filter-7">
            <feOffset dx="0" dy="2" in="SourceAlpha" result="shadowOffsetOuter1"></feOffset>
            <feGaussianBlur stdDeviation="0" in="shadowOffsetOuter1" result="shadowBlurOuter1"></feGaussianBlur>
            <feColorMatrix values="0 0 0 0 0   0 0 0 0 0   0 0 0 0 0  0 0 0 0.035 0" in="shadowBlurOuter1" type="matrix" result="shadowMatrixOuter1"></feColorMatrix>
            <feMerge>
                <feMergeNode in="shadowMatrixOuter1"></feMergeNode>
                <feMergeNode in="SourceGraphic"></feMergeNode>
            </feMerge>
        </filter>
        <filter x="-50%" y="-50%" width="200%" height="200%" filterUnits="objectBoundingBox" id="filter-8">
            <feOffset dx="0" dy="2" in="SourceAlpha" result="shadowOffsetOuter1"></feOffset>
            <feGaussianBlur stdDeviation="0" in="shadowOffsetOuter1" result="shadowBlurOuter1"></feGaussianBlur>
            <feColorMatrix values="0 0 0 0 0   0 0 0 0 0   0 0 0 0 0  0 0 0 0.035 0" in="shadowBlurOuter1" type="matrix" result="shadowMatrixOuter1"></feColorMatrix>
            <feMerge>
                <feMergeNode in="shadowMatrixOuter1"></feMergeNode>
                <feMergeNode in="SourceGraphic"></feMergeNode>
            </feMerge>
        </filter>
        <filter x="-50%" y="-50%" width="200%" height="200%" filterUnits="objectBoundingBox" id="filter-9">
            <feOffset dx="0" dy="2" in="SourceAlpha" result="shadowOffsetOuter1"></feOffset>
            <feGaussianBlur stdDeviation="0" in="shadowOffsetOuter1" result="shadowBlurOuter1"></feGaussianBlur>
            <feColorMatrix values="0 0 0 0 0   0 0 0 0 0   0 0 0 0 0  0 0 0 0.035 0" in="shadowBlurOuter1" type="matrix" result="shadowMatrixOuter1"></feColorMatrix>
            <feMerge>
                <feMergeNode in="shadowMatrixOuter1"></feMergeNode>
                <feMergeNode in="SourceGraphic"></feMergeNode>
            </feMerge>
        </filter>
    </defs>
    <g stroke="none" stroke-width="1" fill="none" fill-rule="evenodd">
        <g transform="translate(-259.000000, -271.000000)" fill="#FFFFFF">
            <g transform="translate(259.000000, 271.000000)">
                <path d="M1293.70893,365.030721 C1293.68684,364.770484 1293.67557,364.507162 1293.67557,364.241208 C1293.67557,359.154375 1297.79926,355.030682 1302.8861,355.030682 C1306.22504,355.030682 1309.14902,356.807368 1310.76422,359.466922 C1313.03306,356.75532 1316.44238,355.030682 1320.25452,355.030682 C1326.69279,355.030682 1331.98211,359.949948 1332.56886,366.234875 L1332.56886,366.234878 C1333.27428,366.134983 1333.99521,366.083313 1334.7282,366.083313 C1343.15781,366.083313 1349.99136,372.916862 1349.99136,381.346471 C1349.99136,389.77608 1343.15781,396.609629 1334.7282,396.609629 C1334.56597,396.609629 1334.40434,396.607098 1334.24333,396.602074 C1331.54703,402.506475 1325.59047,406.609629 1318.67557,406.609629 C1309.35764,406.609629 1301.77986,399.159135 1301.57458,389.890483 C1299.34317,391.47054 1296.61781,392.399103 1293.67557,392.399103 C1286.11799,392.399103 1279.99136,386.272473 1279.99136,378.714892 C1279.99136,371.157311 1286.11799,365.030682 1293.67557,365.030682 C1293.68669,365.030682 1293.69782,365.030695 1293.70893,365.030721 L1293.70893,365.030721 L1293.70893,365.030721 Z" filter="url(#filter-1)"></path>
                <path d="M419.864266,467.915316 C419.003503,465.252219 418.538462,462.411187 418.538462,459.461538 C418.538462,444.29495 430.833411,432 446,432 C458.73763,432 469.449765,440.672178 472.5542,452.434331 C477.648246,447.859877 484.383742,445.076923 491.769231,445.076923 C507.658038,445.076923 520.538462,457.957346 520.538462,473.846154 C520.538462,473.927129 520.538127,474.008026 520.537459,474.088843 L520.537459,474.088843 C536.019628,476.018936 548,489.22577 548,505.230769 C548,522.564014 533.948629,536.615385 516.615385,536.615385 C510.520948,536.615385 504.832234,534.87828 500.017362,531.872189 C494.707006,546.828368 480.431164,557.538462 463.653846,557.538462 C447.900695,557.538462 434.352937,548.096046 428.361595,534.562236 C423.7952,536.717766 418.692204,537.923077 413.307692,537.923077 C393.807792,537.923077 378,522.115285 378,502.615385 C378,483.115485 393.807792,467.307692 413.307692,467.307692 C415.548079,467.307692 417.739728,467.516359 419.864266,467.915316 L419.864266,467.915316 Z" filter="url(#filter-2)"></path>
                <path d="M854.316321,673.940125 C853.878851,675.612911 853.645948,677.36843 853.645948,679.178345 C853.645948,690.580353 862.889102,699.823507 874.291109,699.823507 C879.517541,699.823507 884.290374,697.881423 887.92732,694.679544 L887.92732,694.679544 C891.452192,706.03143 902.037974,714.27512 914.549174,714.27512 C929.941884,714.27512 942.420142,701.796862 942.420142,686.404152 C942.420142,686.262349 942.419083,686.120794 942.416972,685.979494 C945.519853,686.926789 948.813709,687.43641 952.226593,687.43641 C970.754856,687.43641 985.77498,672.416285 985.77498,653.888023 C985.77498,635.35976 970.754856,620.339636 952.226593,620.339636 C951.355889,620.339636 950.492933,620.372806 949.638918,620.437951 L949.638918,620.437951 C949.643596,620.233702 949.645948,620.028879 949.645948,619.823507 C949.645948,605.285947 937.860927,593.500926 923.323368,593.500926 C908.785808,593.500926 897.000787,605.285947 897.000787,619.823507 C897.000787,619.971995 897.002016,620.120196 897.004466,620.268101 L897.004466,620.268101 C893.297733,618.335444 889.083305,617.242861 884.61369,617.242861 C872.903163,617.242861 862.944378,624.742961 859.278796,635.2017 C855.877806,632.983577 851.815646,631.694474 847.4524,631.694474 C835.480292,631.694474 825.77498,641.399786 825.77498,653.371894 C825.77498,665.344002 835.480292,675.049313 847.4524,675.049313 C849.851336,675.049313 852.159258,674.659635 854.316321,673.940125 L854.316321,673.940125 L854.316321,673.940125 Z" filter="url(#filter-3)"></path>
                <path d="M718.964819,335.549743 C718.609375,336.908882 718.420142,338.33524 718.420142,339.805797 C718.420142,349.069928 725.930204,356.57999 735.194335,356.57999 C739.440811,356.57999 743.318738,355.002047 746.273756,352.400521 L746.273756,352.400521 C749.137715,361.623928 757.738663,368.321926 767.904013,368.321926 C780.41059,368.321926 790.549174,358.183342 790.549174,345.676765 C790.549174,345.56155 790.548314,345.446536 790.546599,345.33173 C793.06769,346.101407 795.743947,346.515474 798.516916,346.515474 C813.571129,346.515474 825.77498,334.311623 825.77498,319.25741 C825.77498,304.203196 813.571129,291.999345 798.516916,291.999345 C797.809469,291.999345 797.108317,292.026296 796.414429,292.079226 L796.414429,292.079226 C796.418231,291.913275 796.420142,291.746856 796.420142,291.57999 C796.420142,279.768223 786.844812,270.192894 775.033045,270.192894 C763.221278,270.192894 753.645948,279.768223 753.645948,291.57999 C753.645948,291.700637 753.646947,291.821051 753.648937,291.941223 L753.648937,291.941223 C750.637217,290.37094 747.212994,289.483216 743.581432,289.483216 C734.066629,289.483216 725.975116,295.577047 722.996831,304.074772 C720.233526,302.272548 716.933021,301.225152 713.387884,301.225152 C703.660546,301.225152 695.77498,309.110717 695.77498,318.838055 C695.77498,328.565393 703.660546,336.450958 713.387884,336.450958 C715.337019,336.450958 717.212206,336.134345 718.964819,335.549743 L718.964819,335.549743 L718.964819,335.549743 Z" filter="url(#filter-4)"></path>
                <path d="M1361.87499,72.2092902 C1362.06626,71.3340801 1362.16704,70.4250331 1362.16704,69.4924468 C1362.16704,62.4968399 1356.49598,56.8257801 1349.50037,56.8257801 C1346.40833,56.8257801 1343.57505,57.9336932 1341.37585,59.7741982 L1341.37585,59.7741982 C1338.04632,55.1613503 1332.62395,52.1591134 1326.50037,52.1591134 C1317.09352,52.1591134 1309.34139,59.2438435 1308.28875,68.3685494 C1307.49103,68.2308637 1306.67075,68.1591134 1305.83371,68.1591134 C1297.91763,68.1591134 1291.50037,74.5763654 1291.50037,82.4924468 C1291.50037,90.0012888 1297.27434,96.161548 1304.62456,96.7754991 L1304.62456,96.7754991 C1304.32521,98.0773289 1304.16704,99.4330835 1304.16704,100.82578 C1304.16704,110.766906 1312.22592,118.82578 1322.16704,118.82578 C1328.85416,118.82578 1334.68958,115.179239 1337.79329,109.766172 L1337.79329,109.766172 C1339.67786,110.451802 1341.71211,110.82578 1343.83371,110.82578 C1353.48619,110.82578 1361.33065,103.084745 1361.49766,93.4721193 C1367.07943,93.1293255 1371.50037,88.4938367 1371.50037,82.8257801 C1371.50037,77.2860614 1367.27736,72.7326804 1361.87499,72.2092902 L1361.87499,72.2092902 Z" filter="url(#filter-5)"></path>
                <path d="M1095.58436,487.161999 C1097.3042,488.179143 1099.31074,488.762887 1101.45361,488.762887 C1107.8305,488.762887 1113,483.593391 1113,477.216495 C1113,470.839599 1107.8305,465.670103 1101.45361,465.670103 C1100.2333,465.670103 1099.05721,465.859411 1097.9531,466.21026 L1097.9531,466.21026 C1096.8412,459.812825 1091.26186,454.948454 1084.54639,454.948454 C1083.50064,454.948454 1082.48244,455.066413 1081.50437,455.289751 C1079.09742,452.07813 1075.26047,450 1070.93814,450 C1065.7127,450 1061.19664,453.037278 1059.05909,457.442729 C1053.24149,457.756623 1048.39523,461.724447 1046.77473,467.091769 C1045.69169,466.705301 1044.52506,466.494845 1043.30928,466.494845 C1037.61562,466.494845 1033,471.110466 1033,476.804124 C1033,482.236949 1037.20241,486.688247 1042.53391,487.084682 L1042.53391,487.084682 C1042.23235,488.281424 1042.07216,489.534377 1042.07216,490.824742 C1042.07216,499.251355 1048.90328,506.082474 1057.3299,506.082474 C1063.60639,506.082474 1068.99772,502.292642 1071.34037,496.876496 C1073.91396,499.019936 1077.22393,500.309278 1080.83505,500.309278 C1088.45969,500.309278 1094.74179,494.561184 1095.58436,487.161999 L1095.58436,487.161999 L1095.58436,487.161999 Z" filter="url(#filter-6)"></path>
                <path d="M580.053488,51.0977484 C582.418279,52.4963212 585.177261,53.2989691 588.123711,53.2989691 C596.891943,53.2989691 604,46.1909125 604,37.4226804 C604,28.6544483 596.891943,21.5463918 588.123711,21.5463918 C586.445789,21.5463918 584.828662,21.8066897 583.310508,22.2891081 L583.310508,22.2891081 C581.781653,13.4926348 574.110064,6.80412371 564.876289,6.80412371 C563.438379,6.80412371 562.038351,6.96631755 560.693503,7.27340805 C557.383958,2.85742877 552.108148,0 546.164948,0 C538.979958,0 532.770385,4.17625694 529.831247,10.2337526 C521.832053,10.665356 515.168438,16.1211147 512.940247,23.5011829 C511.451078,22.969789 509.846961,22.6804124 508.175258,22.6804124 C500.346479,22.6804124 494,29.0268914 494,36.8556701 C494,44.3258043 499.778321,50.4463394 507.109124,50.9914383 L507.109124,50.9914383 C506.694476,52.6369576 506.474227,54.3597682 506.474227,56.1340206 C506.474227,67.720613 515.867016,77.1134021 527.453608,77.1134021 C536.083787,77.1134021 543.496868,71.9023823 546.718009,64.4551822 C550.256695,67.4024125 554.80791,69.1752577 559.773196,69.1752577 C570.257078,69.1752577 578.894968,61.2716286 580.053488,51.0977484 L580.053488,51.0977484 L580.053488,51.0977484 Z" filter="url(#filter-7)"></path>
                <path d="M78.2304441,552.534973 C80.3802536,553.806403 82.888419,554.536082 85.5670103,554.536082 C93.5381304,554.536082 100,548.074213 100,540.103093 C100,532.131973 93.5381304,525.670103 85.5670103,525.670103 C84.0416259,525.670103 82.5715105,525.906738 81.1913708,526.3453 L81.1913708,526.3453 C79.8015026,518.348506 72.8273305,512.268041 64.4329897,512.268041 C63.1257987,512.268041 61.8530463,512.41549 60.6304571,512.694663 C57.6217804,508.680137 52.8255887,506.082474 47.4226804,506.082474 C40.8908712,506.082474 35.2458047,509.879071 32.5738612,515.385886 C25.3018663,515.778252 19.2440342,520.738033 17.2184063,527.447186 C15.864616,526.964101 14.4063286,526.701031 12.8865979,526.701031 C5.76952642,526.701031 0,532.470557 0,539.587629 C0,546.37866 5.25301864,551.942783 11.9173858,552.438327 L11.9173858,552.438327 C11.5404325,553.934254 11.3402062,555.500445 11.3402062,557.113402 C11.3402062,567.646668 19.8791053,576.185567 30.4123711,576.185567 C38.2579885,576.185567 44.9971523,571.448276 47.9254631,564.678094 C51.1424496,567.357395 55.2799183,568.969072 59.7938144,568.969072 C69.324616,568.969072 77.1772434,561.783955 78.2304441,552.534973 L78.2304441,552.534973 L78.2304441,552.534973 Z" filter="url(#filter-8)"></path>
                <path d="M277.155571,272.087809 C277.490295,270.556192 277.666667,268.965359 277.666667,267.333333 C277.666667,255.091021 267.742312,245.166667 255.5,245.166667 C250.088917,245.166667 245.130677,247.105515 241.28209,250.326398 L241.28209,250.326398 C235.455408,242.253915 225.966263,237 215.25,237 C198.788003,237 185.221778,249.398278 183.37965,265.366513 C181.983655,265.125563 180.548158,265 179.083333,265 C165.230191,265 154,276.230191 154,290.083333 C154,303.223807 164.104448,314.00426 176.967324,315.078675 L176.967324,315.078675 C176.443459,317.356877 176.166667,319.729448 176.166667,322.166667 C176.166667,339.563636 190.269697,353.666667 207.666667,353.666667 C219.369121,353.666667 229.581108,347.28522 235.012604,337.812352 L235.012604,337.812352 C238.310609,339.012205 241.870543,339.666667 245.583333,339.666667 C262.475175,339.666667 276.202988,326.119855 276.495245,309.29776 C286.263341,308.697871 294,300.585766 294,290.666667 C294,280.972159 286.609726,273.003742 277.155571,272.087809 L277.155571,272.087809 Z" filter="url(#filter-9)"></path>
            </g>
        </g>
    </g>
</svg>