<?xml version="1.0" encoding="UTF-8" standalone="no"?>
<svg width="1272px" height="669px" viewBox="0 0 1272 669" version="1.1" xmlns="http://www.w3.org/2000/svg" xmlns:xlink="http://www.w3.org/1999/xlink">
    <defs>
        <filter x="-50%" y="-50%" width="200%" height="200%" filterUnits="objectBoundingBox" id="filter-1">
            <feOffset dx="0" dy="4" in="SourceAlpha" result="shadowOffsetOuter1"></feOffset>
            <feGaussianBlur stdDeviation="0" in="shadowOffsetOuter1" result="shadowBlurOuter1"></feGaussianBlur>
            <feColorMatrix values="0 0 0 0 0   0 0 0 0 0   0 0 0 0 0  0 0 0 0.035 0" in="shadowBlurOuter1" type="matrix" result="shadowMatrixOuter1"></feColorMatrix>
            <feMerge>
                <feMergeNode in="shadowMatrixOuter1"></feMergeNode>
                <feMergeNode in="SourceGraphic"></feMergeNode>
            </feMerge>
        </filter>
        <filter x="-50%" y="-50%" width="200%" height="200%" filterUnits="objectBoundingBox" id="filter-2">
            <feOffset dx="0" dy="4" in="SourceAlpha" result="shadowOffsetOuter1"></feOffset>
            <feGaussianBlur stdDeviation="0" in="shadowOffsetOuter1" result="shadowBlurOuter1"></feGaussianBlur>
            <feColorMatrix values="0 0 0 0 0   0 0 0 0 0   0 0 0 0 0  0 0 0 0.035 0" in="shadowBlurOuter1" type="matrix" result="shadowMatrixOuter1"></feColorMatrix>
            <feMerge>
                <feMergeNode in="shadowMatrixOuter1"></feMergeNode>
                <feMergeNode in="SourceGraphic"></feMergeNode>
            </feMerge>
        </filter>
        <filter x="-50%" y="-50%" width="200%" height="200%" filterUnits="objectBoundingBox" id="filter-3">
            <feOffset dx="0" dy="4" in="SourceAlpha" result="shadowOffsetOuter1"></feOffset>
            <feGaussianBlur stdDeviation="0" in="shadowOffsetOuter1" result="shadowBlurOuter1"></feGaussianBlur>
            <feColorMatrix values="0 0 0 0 0   0 0 0 0 0   0 0 0 0 0  0 0 0 0.035 0" in="shadowBlurOuter1" type="matrix" result="shadowMatrixOuter1"></feColorMatrix>
            <feMerge>
                <feMergeNode in="shadowMatrixOuter1"></feMergeNode>
                <feMergeNode in="SourceGraphic"></feMergeNode>
            </feMerge>
        </filter>
        <filter x="-50%" y="-50%" width="200%" height="200%" filterUnits="objectBoundingBox" id="filter-4">
            <feOffset dx="0" dy="4" in="SourceAlpha" result="shadowOffsetOuter1"></feOffset>
            <feGaussianBlur stdDeviation="0" in="shadowOffsetOuter1" result="shadowBlurOuter1"></feGaussianBlur>
            <feColorMatrix values="0 0 0 0 0   0 0 0 0 0   0 0 0 0 0  0 0 0 0.035 0" in="shadowBlurOuter1" type="matrix" result="shadowMatrixOuter1"></feColorMatrix>
            <feMerge>
                <feMergeNode in="shadowMatrixOuter1"></feMergeNode>
                <feMergeNode in="SourceGraphic"></feMergeNode>
            </feMerge>
        </filter>
        <filter x="-50%" y="-50%" width="200%" height="200%" filterUnits="objectBoundingBox" id="filter-5">
            <feOffset dx="0" dy="4" in="SourceAlpha" result="shadowOffsetOuter1"></feOffset>
            <feGaussianBlur stdDeviation="0" in="shadowOffsetOuter1" result="shadowBlurOuter1"></feGaussianBlur>
            <feColorMatrix values="0 0 0 0 0   0 0 0 0 0   0 0 0 0 0  0 0 0 0.035 0" in="shadowBlurOuter1" type="matrix" result="shadowMatrixOuter1"></feColorMatrix>
            <feMerge>
                <feMergeNode in="shadowMatrixOuter1"></feMergeNode>
                <feMergeNode in="SourceGraphic"></feMergeNode>
            </feMerge>
        </filter>
        <filter x="-50%" y="-50%" width="200%" height="200%" filterUnits="objectBoundingBox" id="filter-6">
            <feOffset dx="0" dy="4" in="SourceAlpha" result="shadowOffsetOuter1"></feOffset>
            <feGaussianBlur stdDeviation="0" in="shadowOffsetOuter1" result="shadowBlurOuter1"></feGaussianBlur>
            <feColorMatrix values="0 0 0 0 0   0 0 0 0 0   0 0 0 0 0  0 0 0 0.035 0" in="shadowBlurOuter1" type="matrix" result="shadowMatrixOuter1"></feColorMatrix>
            <feMerge>
                <feMergeNode in="shadowMatrixOuter1"></feMergeNode>
                <feMergeNode in="SourceGraphic"></feMergeNode>
            </feMerge>
        </filter>
        <filter x="-50%" y="-50%" width="200%" height="200%" filterUnits="objectBoundingBox" id="filter-7">
            <feOffset dx="0" dy="4" in="SourceAlpha" result="shadowOffsetOuter1"></feOffset>
            <feGaussianBlur stdDeviation="0" in="shadowOffsetOuter1" result="shadowBlurOuter1"></feGaussianBlur>
            <feColorMatrix values="0 0 0 0 0   0 0 0 0 0   0 0 0 0 0  0 0 0 0.035 0" in="shadowBlurOuter1" type="matrix" result="shadowMatrixOuter1"></feColorMatrix>
            <feMerge>
                <feMergeNode in="shadowMatrixOuter1"></feMergeNode>
                <feMergeNode in="SourceGraphic"></feMergeNode>
            </feMerge>
        </filter>
        <filter x="-50%" y="-50%" width="200%" height="200%" filterUnits="objectBoundingBox" id="filter-8">
            <feOffset dx="0" dy="4" in="SourceAlpha" result="shadowOffsetOuter1"></feOffset>
            <feGaussianBlur stdDeviation="0" in="shadowOffsetOuter1" result="shadowBlurOuter1"></feGaussianBlur>
            <feColorMatrix values="0 0 0 0 0   0 0 0 0 0   0 0 0 0 0  0 0 0 0.035 0" in="shadowBlurOuter1" type="matrix" result="shadowMatrixOuter1"></feColorMatrix>
            <feMerge>
                <feMergeNode in="shadowMatrixOuter1"></feMergeNode>
                <feMergeNode in="SourceGraphic"></feMergeNode>
            </feMerge>
        </filter>
        <filter x="-50%" y="-50%" width="200%" height="200%" filterUnits="objectBoundingBox" id="filter-9">
            <feOffset dx="0" dy="4" in="SourceAlpha" result="shadowOffsetOuter1"></feOffset>
            <feGaussianBlur stdDeviation="0" in="shadowOffsetOuter1" result="shadowBlurOuter1"></feGaussianBlur>
            <feColorMatrix values="0 0 0 0 0   0 0 0 0 0   0 0 0 0 0  0 0 0 0.035 0" in="shadowBlurOuter1" type="matrix" result="shadowMatrixOuter1"></feColorMatrix>
            <feMerge>
                <feMergeNode in="shadowMatrixOuter1"></feMergeNode>
                <feMergeNode in="SourceGraphic"></feMergeNode>
            </feMerge>
        </filter>
    </defs>
    <g stroke="none" stroke-width="1" fill="none" fill-rule="evenodd">
        <g transform="translate(-148.000000, -273.000000)" fill="#FFFFFF">
            <g transform="translate(148.000000, 273.000000)">
                <path d="M912.279037,116.444659 L916.690471,115.214721 L918.102884,118.841643 L924.015071,123.170944 L930.044976,123.013917 L934.034777,120.410875 L936.069089,117.672529 L941.051323,116.8094 L944.82741,112.160459 L944.003589,105.081227 L938.836813,101.589608 L934.778326,101.261901 L932.816631,96.77578 L928.762075,95.1928936 L923.501165,97.2329986 L919.760456,95.257649 L915.115447,96.3305609 L912.722187,100.85599 L907.490655,103.170633 L904.979884,109.188746 L908.393093,115.087279 L912.279037,116.444659 Z" filter="url(#filter-1)"></path>
                <path d="M918.929145,485.83547 L927.785775,483.366181 L930.621408,490.647782 L942.491028,499.339515 L954.596985,499.02426 L962.60712,493.798255 L966.691312,488.300607 L976.693908,486.567743 L984.27498,477.234285 L982.621034,463.021643 L972.247941,456.011685 L964.099908,455.353762 L960.161505,446.347189 L952.021364,443.169302 L941.459284,447.265125 L933.949238,443.299309 L924.623672,445.453343 L919.818837,454.538834 L909.315737,459.185833 L904.27498,471.268115 L911.127519,483.110322 L918.929145,485.83547 Z" filter="url(#filter-2)"></path>
                <path d="M762.750712,412.366788 L785.929215,421.751354 L797.70251,443.68866 L818.304955,450.788022 L838.25284,441.611052 L843.269664,432.159113 L858.616467,430.118204 L867.341544,416.334674 L886.525869,412.491674 L897.5,392.782607 L884.168362,366.462221 L858.876099,366.705969 L841.005822,349.947072 L815.619894,346 L793.277802,360.510392 L786.733857,374.636812 L769.517591,376.817944 L757.5,394.65207 L762.750712,412.366788 Z" filter="url(#filter-3)"></path>
                <path d="M34.5004069,643.177678 L47.7452659,648.540287 L54.472863,661.07589 L66.2456884,665.132668 L77.6444803,659.888686 L80.5112367,654.487578 L89.2808382,653.321344 L94.2665968,645.445041 L105.229068,643.249041 L111.5,631.986717 L103.881921,616.946497 L89.4291997,617.085781 L79.2176124,607.509269 L64.7113681,605.253799 L51.9444584,613.545451 L48.2050612,621.617691 L38.3671946,622.864053 L31.5,633.054982 L34.5004069,643.177678 Z" filter="url(#filter-4)"></path>
                <path d="M1187.38142,619.121616 L1195.00253,627.163077 L1213.51575,632.14249 L1231.07357,627.015587 L1242.10579,615.463055 L1252.11214,617.226375 L1263.15994,611.88889 L1271.76022,593.911546 L1263.83593,578.109674 L1251.96465,573.23842 L1248.12665,562.190629 L1236.52741,553.955793 L1219.58331,555.820717 L1211.02973,548.665013 L1195.79488,544.524652 L1182.22256,553.846814 L1178.33784,565.244483 L1160.67105,572.702541 L1151.76022,590.624986 L1161.0832,612.557509 L1177.51436,619.805804 L1187.38142,619.121616 Z" filter="url(#filter-5)"></path>
                <path d="M289.649476,254.665981 L301.827342,251.270708 L305.726338,261.282909 L322.047065,273.234043 L338.692756,272.800567 L349.706691,265.61481 L355.322456,258.055543 L369.076026,255.672855 L379.5,242.839351 L377.225824,223.296969 L362.96282,213.658276 L351.759275,212.753632 L346.343972,200.369594 L335.151278,196 L320.628418,201.631756 L310.302104,196.178759 L297.47945,199.140556 L290.872803,211.633106 L276.431041,218.02273 L269.5,234.635868 L278.92224,250.918902 L289.649476,254.665981 Z" filter="url(#filter-6)"></path>
                <path d="M374.649476,59.3954568 L386.827342,56.0001836 L390.726338,66.0123847 L407.047065,77.9635181 L423.692756,77.5300425 L434.706691,70.344285 L440.322456,62.785019 L454.076026,60.402331 L464.5,47.5688263 L462.225824,28.0264445 L447.96282,18.387752 L436.759275,17.4831073 L431.343972,5.0990694 L420.151278,0.72947551 L405.628418,6.36123153 L395.302104,0.908234219 L382.47945,3.87003188 L375.872803,16.3625814 L361.431041,22.7522059 L354.5,39.3653436 L363.92224,55.6483773 L374.649476,59.3954568 Z" filter="url(#filter-7)"></path>
                <path d="M26.1447878,322.367922 L41.6438896,318.046665 L46.606248,330.789467 L67.3780827,346 L88.5635079,345.448304 L102.581244,336.302794 L109.728581,326.68191 L127.233124,323.649398 L140.5,307.315847 L137.605594,282.443724 L119.452681,270.176298 L105.193623,269.024932 L98.3014184,253.263429 L84.0561717,247.702128 L65.5725315,254.869817 L52.4299503,247.929639 L36.1102094,251.699199 L27.7017486,267.598808 L9.32132436,275.731057 L0.5,296.875051 L12.4919421,317.598912 L26.1447878,322.367922 Z" filter="url(#filter-8)"></path>
                <path d="M455.822394,435.726908 L463.571945,433.56628 L466.053124,439.93768 L476.439041,447.542947 L487.031754,447.267099 L494.040622,442.694344 L497.61429,437.883902 L506.366562,436.367646 L513,428.20087 L511.552797,415.764809 L502.47634,409.631096 L495.346812,409.055413 L491.900709,401.174661 L484.778086,398.394011 L475.536266,401.977856 L468.964975,398.507766 L460.805105,400.392547 L456.600874,408.342351 L447.410662,412.408476 L443,422.980472 L448.995971,433.342403 L455.822394,435.726908 Z" filter="url(#filter-9)"></path>
            </g>
        </g>
    </g>
</svg>